<svg xmlns="http://www.w3.org/2000/svg" xmlns:xlink="http://www.w3.org/1999/xlink" width="99" height="39" viewBox="0 0 99 39"><defs><path id="5zm6a" d="M79.44 56.74c.33 0 .76-.04 1.19-.07.47-.08.68.1.68.53v3.5c0 .35-.14.64-.5.71-.61.1-1.44.18-2.3.18-4.28 0-7.12-2.23-7.12-6.76V38.91c0-.4.22-.61.65-.61h4.31c.4 0 .61.18.65.57l-.07 4.24h3.3c.4 0 .65.22.65.62v3.41c0 .4-.25.61-.65.61h-3.27v6.4c0 1.72.87 2.59 2.48 2.59z"/><path id="5zm6c" d="M98.2 42.72c.44 0 .65.21.65.61v16.1c0 .36-.14.61-.46.76-2.2.9-5 1.4-7.59 1.4-5.53 0-8.66-2.88-8.66-8.23V43.29c0-.4.22-.6.65-.6h4.35c.43 0 .64.2.64.6v10.1c0 2.6 1.12 3.42 3.02 3.42.97 0 1.87-.14 2.41-.36V43.33c0-.4.22-.61.61-.61z"/><path id="5zm6e" d="M109.17 56.02c1.08 0 2.05-.22 2.59-.61v-8.02a7.8 7.8 0 0 0-2.45-.36c-1.97 0-3.16.8-3.16 3.02v3.13c0 2.08 1.19 2.84 3.02 2.84zm-.54 12.26c-3.05 0-5.21-.62-7.26-1.9-.29-.22-.36-.55-.14-.9l1.94-2.88c.21-.33.47-.4.82-.18a8.97 8.97 0 0 0 4.43 1.18c2.3 0 3.48-.86 3.45-3.48-1.05.32-2.3.54-3.42.54-4.74 0-8.01-2.77-8.01-7.59v-2.91c0-5.54 3.8-7.98 8.8-7.98 2.73 0 5.47.61 7.66 1.4.32.15.47.4.47.76v14.99c0 6.1-2.56 8.95-8.74 8.95z"/><path id="5zm6g" d="M127.72 56.8c1.94 0 3.02-.96 3.02-2.72v-4.24c0-1.77-1.08-2.8-3.02-2.8s-3.02 1.03-3.02 2.8v4.24c.03 1.8 1.08 2.73 3.02 2.73zm0 4.79c-5.4 0-8.74-2.84-8.74-7.51v-4.24c0-4.75 3.35-7.62 8.74-7.62 5.35 0 8.7 2.87 8.7 7.62v4.24c.03 4.67-3.31 7.51-8.7 7.51z"/><path id="5zm6i" d="M66.94 36.79a9.4 9.4 0 0 0-.8-2.2 4.18 4.18 0 0 0-2.44-2.04 3.44 3.44 0 0 0-1.9-.15c.17.18.4.33.53.5.4.4.69.9.9 1.4.58 1.23.87 2.52 1.05 3.89.14 1 .14 2.05.1 3.06a24.94 24.94 0 0 1-.46 3.66 9.97 9.97 0 0 1-1.23 3.16c0 .04-.03.04-.03.08.03 0 .03.03.07.03.86.33 1.3.97 1.51 1.84.1.43.14.9.14 1.33 0 .03 0 .07.04.18l.14-.26a23.06 23.06 0 0 0 2.73-10.13c.04-1.44-.03-2.91-.35-4.35z"/><path id="5zm6k" d="M56.58 32.44a6.6 6.6 0 0 1 2.05 1.08h.04a5.07 5.07 0 0 1 4.42-1.58c-.07-.08-.14-.11-.18-.15a8.18 8.18 0 0 0-4.35-1.51 5.33 5.33 0 0 0-4.03 1.55c-.03.03-.03.07-.07.1.07 0 .11.04.15.04.68.1 1.33.25 1.97.47z"/><path id="5zm6m" d="M50.47 31.86c-.1-.57.18-.9.61-1.15l-.21-.03a6.73 6.73 0 0 0-3.13.57c-.21.11-.4.25-.5.47a3.3 3.3 0 0 0-.33.83v.14a6.5 6.5 0 0 1 3.56-.83z"/><path id="5zm6o" d="M55.33 65.44s-15.71 4.74-17.3-13.41c0 0-.71-6.26 4.32-7.59a8.4 8.4 0 0 1 3.34-.21 7.13 7.13 0 0 1 5.4 4.24c1.14 2.66 3.2 8.41 4.24 16.97z"/><path id="5zm6q" d="M58.13 64.54c-.86.54-1.87.79-2.01-.22-.5-4.24-2.45-16.39-5.8-19.2-3.15-2.62-6.82-2.15-8.37-1.83-.6.15-1.4.54-1.9.9-.25.18-.5.4-.68.61-.11.18-.3.15-.3 0-.35-2.15-1.1-10.82 9.21-9.85 0 0 8.73-.17 8.99 10.1-.04-.03.86 18.12.86 19.49z"/><path id="5zm6s" d="M43.97 34.52s2.87-.75 6.75.04c4.14.83 6.83 3.49 7.44 8.48.04.18 0 .36 0 .54.22 5.75.69 15.78.69 20.63 0 0 1.36-.1 1.62-1.04 0 0-.65-13.01 2.33-14.09 0 0-1.04-.4-2.05-.29 0 0 2.63-10.89-1.9-14.2-4.53-3.3-10.14-1.86-10.14-1.86s-1.83.4-4.74 1.8z"/><path id="5zm6u" d="M61.18 62.74s4.25-3.88 2.27-12.9c0 0-2.01.43-2.09 7.11v.83c-.14 1.22 0 3.45-.18 4.96z"/><linearGradient id="5zm6b" x1="76.33" x2="76.33" y1="61.56" y2="38.29" gradientUnits="userSpaceOnUse"><stop offset="0" stop-color="#ff4f49"/><stop offset="1" stop-color="#ff8f55"/></linearGradient><linearGradient id="5zm6d" x1="90.51" x2="90.51" y1="61.59" y2="42.73" gradientUnits="userSpaceOnUse"><stop offset="0" stop-color="#ff4f49"/><stop offset="1" stop-color="#ff8f55"/></linearGradient><linearGradient id="5zm6f" x1="108.9" x2="108.9" y1="68.29" y2="42.22" gradientUnits="userSpaceOnUse"><stop offset="0" stop-color="#ff4f49"/><stop offset="1" stop-color="#ff8f55"/></linearGradient><linearGradient id="5zm6h" x1="127.71" x2="127.71" y1="61.59" y2="42.23" gradientUnits="userSpaceOnUse"><stop offset="0" stop-color="#ff4f49"/><stop offset="1" stop-color="#ff8f55"/></linearGradient><linearGradient id="5zm6j" x1="64.54" x2="64.54" y1="51.57" y2="32.33" gradientUnits="userSpaceOnUse"><stop offset="0" stop-color="#ff4f49"/><stop offset="1" stop-color="#ff8f55"/></linearGradient><linearGradient id="5zm6l" x1="58.78" x2="58.78" y1="33.55" y2="30.29" gradientUnits="userSpaceOnUse"><stop offset="0" stop-color="#ff4f49"/><stop offset="1" stop-color="#ff8f55"/></linearGradient><linearGradient id="5zm6n" x1="49" x2="49" y1="32.69" y2="30.68" gradientUnits="userSpaceOnUse"><stop offset="0" stop-color="#ff4f49"/><stop offset="1" stop-color="#ff8f55"/></linearGradient><linearGradient id="5zm6p" x1="46.66" x2="46.66" y1="66.01" y2="44.13" gradientUnits="userSpaceOnUse"><stop offset="0" stop-color="#ff4f49"/><stop offset="1" stop-color="#ff8f55"/></linearGradient><linearGradient id="5zm6r" x1="48.52" x2="48.52" y1="65.01" y2="34.86" gradientUnits="userSpaceOnUse"><stop offset="0" stop-color="#ff4f49"/><stop offset="1" stop-color="#ff8f55"/></linearGradient><linearGradient id="5zm6t" x1="53.41" x2="53.41" y1="64.21" y2="32.43" gradientUnits="userSpaceOnUse"><stop offset="0" stop-color="#ff4f49"/><stop offset="1" stop-color="#ff8f55"/></linearGradient><linearGradient id="5zm6v" x1="62.57" x2="62.57" y1="62.74" y2="49.85" gradientUnits="userSpaceOnUse"><stop offset="0" stop-color="#ff4f49"/><stop offset="1" stop-color="#ff8f55"/></linearGradient></defs><g><g transform="translate(-38 -30)"><g><g><use fill="url(#5zm6b)" xlink:href="#5zm6a"/></g><g><use fill="url(#5zm6d)" xlink:href="#5zm6c"/></g><g><use fill="url(#5zm6f)" xlink:href="#5zm6e"/></g><g><use fill="url(#5zm6h)" xlink:href="#5zm6g"/></g></g><g><g><g><use fill="url(#5zm6j)" xlink:href="#5zm6i"/></g><g><use fill="url(#5zm6l)" xlink:href="#5zm6k"/></g><g><use fill="url(#5zm6n)" xlink:href="#5zm6m"/></g></g><g><use fill="url(#5zm6p)" xlink:href="#5zm6o"/></g><g><use fill="url(#5zm6r)" xlink:href="#5zm6q"/></g><g><use fill="url(#5zm6t)" xlink:href="#5zm6s"/></g><g><use fill="url(#5zm6v)" xlink:href="#5zm6u"/></g></g></g></g></svg>